<svg xmlns="http://www.w3.org/2000/svg" width="496" height="392" viewBox="0 0 496 392">
  <defs>
    <style>
      .cls-1 {
        fill: #333;
        fill-rule: evenodd;
      }
    </style>
  </defs>
  <path id="圆角矩形_1" data-name="圆角矩形 1" class="cls-1" d="M262,304H738a10,10,0,0,1,10,10v44a10,10,0,0,1-10,10H262a10,10,0,0,1-10-10V314A10,10,0,0,1,262,304Zm0,0H738a10,10,0,0,1,10,10v44a10,10,0,0,1-10,10H262a10,10,0,0,1-10-10V314A10,10,0,0,1,262,304Zm0,0H738a10,10,0,0,1,10,10v44a10,10,0,0,1-10,10H262a10,10,0,0,1-10-10V314A10,10,0,0,1,262,304Zm0,0H738a10,10,0,0,1,10,10v44a10,10,0,0,1-10,10H262a10,10,0,0,1-10-10V314A10,10,0,0,1,262,304Zm0,0H738a10,10,0,0,1,10,10v44a10,10,0,0,1-10,10H262a10,10,0,0,1-10-10V314A10,10,0,0,1,262,304Zm0,0H738a10,10,0,0,1,10,10v44a10,10,0,0,1-10,10H262a10,10,0,0,1-10-10V314A10,10,0,0,1,262,304Zm0,0H738a10,10,0,0,1,10,10v44a10,10,0,0,1-10,10H262a10,10,0,0,1-10-10V314A10,10,0,0,1,262,304Zm0,0H738a10,10,0,0,1,10,10v44a10,10,0,0,1-10,10H262a10,10,0,0,1-10-10V314A10,10,0,0,1,262,304Zm0,164H738a10,10,0,0,1,10,10v44a10,10,0,0,1-10,10H262a10,10,0,0,1-10-10V478A10,10,0,0,1,262,468Zm0,0H738a10,10,0,0,1,10,10v44a10,10,0,0,1-10,10H262a10,10,0,0,1-10-10V478A10,10,0,0,1,262,468Zm0,0H738a10,10,0,0,1,10,10v44a10,10,0,0,1-10,10H262a10,10,0,0,1-10-10V478A10,10,0,0,1,262,468Zm0,0H738a10,10,0,0,1,10,10v44a10,10,0,0,1-10,10H262a10,10,0,0,1-10-10V478A10,10,0,0,1,262,468Zm0,0H738a10,10,0,0,1,10,10v44a10,10,0,0,1-10,10H262a10,10,0,0,1-10-10V478A10,10,0,0,1,262,468Zm0,0H738a10,10,0,0,1,10,10v44a10,10,0,0,1-10,10H262a10,10,0,0,1-10-10V478A10,10,0,0,1,262,468Zm0,0H738a10,10,0,0,1,10,10v44a10,10,0,0,1-10,10H262a10,10,0,0,1-10-10V478A10,10,0,0,1,262,468Zm0,0H738a10,10,0,0,1,10,10v44a10,10,0,0,1-10,10H262a10,10,0,0,1-10-10V478A10,10,0,0,1,262,468Zm0,164H738a10,10,0,0,1,10,10v44a10,10,0,0,1-10,10H262a10,10,0,0,1-10-10V642A10,10,0,0,1,262,632Zm0,0H738a10,10,0,0,1,10,10v44a10,10,0,0,1-10,10H262a10,10,0,0,1-10-10V642A10,10,0,0,1,262,632Zm0,0H738a10,10,0,0,1,10,10v44a10,10,0,0,1-10,10H262a10,10,0,0,1-10-10V642A10,10,0,0,1,262,632Zm0,0H738a10,10,0,0,1,10,10v44a10,10,0,0,1-10,10H262a10,10,0,0,1-10-10V642A10,10,0,0,1,262,632Zm0,0H738a10,10,0,0,1,10,10v44a10,10,0,0,1-10,10H262a10,10,0,0,1-10-10V642A10,10,0,0,1,262,632Zm0,0H738a10,10,0,0,1,10,10v44a10,10,0,0,1-10,10H262a10,10,0,0,1-10-10V642A10,10,0,0,1,262,632Zm0,0H738a10,10,0,0,1,10,10v44a10,10,0,0,1-10,10H262a10,10,0,0,1-10-10V642A10,10,0,0,1,262,632Zm0,0H738a10,10,0,0,1,10,10v44a10,10,0,0,1-10,10H262a10,10,0,0,1-10-10V642A10,10,0,0,1,262,632Z" transform="translate(-252 -304)"/>
</svg>
